<svg width="158" height="35" viewBox="0 0 158 35" fill="none" xmlns="http://www.w3.org/2000/svg">
<path d="M53.1465 29H50.4307V23.4541H45.3418V29H42.6172V16.1504H45.3418V21.1865H50.4307V16.1504H53.1465V29ZM58.8682 19.1738V29H56.1875V19.1738H58.8682ZM57.5322 15.3242C57.9307 15.3242 58.2734 15.418 58.5605 15.6055C58.8477 15.7871 58.9912 16.1299 58.9912 16.6338C58.9912 17.1318 58.8477 17.4775 58.5605 17.6709C58.2734 17.8584 57.9307 17.9521 57.5322 17.9521C57.1279 17.9521 56.7822 17.8584 56.4951 17.6709C56.2139 17.4775 56.0732 17.1318 56.0732 16.6338C56.0732 16.1299 56.2139 15.7871 56.4951 15.6055C56.7822 15.418 57.1279 15.3242 57.5322 15.3242ZM64.1855 26.9082L64.3174 27.1104C64.2119 27.5322 64.0742 27.9863 63.9043 28.4727C63.7402 28.959 63.5586 29.4453 63.3594 29.9316C63.166 30.418 62.9697 30.8809 62.7705 31.3203H60.8369C60.9541 30.8457 61.0684 30.3477 61.1797 29.8262C61.291 29.3047 61.3936 28.792 61.4873 28.2881C61.5869 27.7842 61.666 27.3242 61.7246 26.9082H64.1855ZM71.9111 21.7842H77.0088V28.4463C76.335 28.6689 75.6348 28.8477 74.9082 28.9824C74.1816 29.1113 73.3584 29.1758 72.4385 29.1758C71.1611 29.1758 70.0771 28.9238 69.1865 28.4199C68.2959 27.916 67.6191 27.1719 67.1562 26.1875C66.6934 25.2031 66.4619 23.9932 66.4619 22.5576C66.4619 21.21 66.7197 20.0439 67.2354 19.0596C67.7568 18.0752 68.5156 17.3135 69.5117 16.7744C70.5137 16.2354 71.7354 15.9658 73.1768 15.9658C73.8564 15.9658 74.5273 16.0391 75.1895 16.1855C75.8516 16.332 76.4521 16.5225 76.9912 16.7568L76.0859 18.9365C75.6934 18.7373 75.2451 18.5703 74.7412 18.4355C74.2373 18.3008 73.71 18.2334 73.1592 18.2334C72.3682 18.2334 71.6797 18.415 71.0938 18.7783C70.5137 19.1416 70.0625 19.6514 69.7402 20.3076C69.4238 20.958 69.2656 21.7256 69.2656 22.6104C69.2656 23.4482 69.3799 24.1924 69.6084 24.8428C69.8369 25.4873 70.1973 25.9941 70.6895 26.3633C71.1816 26.7266 71.8232 26.9082 72.6143 26.9082C73.001 26.9082 73.3262 26.8906 73.5898 26.8555C73.8594 26.8145 74.1113 26.7734 74.3457 26.7324V24.0518H71.9111V21.7842ZM88.8828 19.1738V29H86.8262L86.4658 27.7432H86.3252C86.1143 28.0771 85.8506 28.3496 85.5342 28.5605C85.2178 28.7715 84.8691 28.9268 84.4883 29.0264C84.1074 29.126 83.7119 29.1758 83.3018 29.1758C82.5986 29.1758 81.9863 29.0527 81.4648 28.8066C80.9434 28.5547 80.5361 28.165 80.2432 27.6377C79.9561 27.1104 79.8125 26.4248 79.8125 25.5811V19.1738H82.4932V24.9131C82.4932 25.6162 82.6191 26.1465 82.8711 26.5039C83.123 26.8613 83.5244 27.04 84.0752 27.04C84.6201 27.04 85.0479 26.917 85.3584 26.6709C85.6689 26.4189 85.8857 26.0527 86.0088 25.5723C86.1377 25.0859 86.2021 24.4941 86.2021 23.7969V19.1738H88.8828ZM95.7471 18.9893C96.6553 18.9893 97.4375 19.165 98.0938 19.5166C98.75 19.8623 99.2568 20.3662 99.6143 21.0283C99.9717 21.6904 100.15 22.499 100.15 23.4541V24.7549H93.8135C93.8428 25.5107 94.0684 26.1055 94.4902 26.5391C94.918 26.9668 95.5098 27.1807 96.2656 27.1807C96.8926 27.1807 97.4668 27.1162 97.9883 26.9873C98.5098 26.8584 99.0459 26.665 99.5967 26.4072V28.4814C99.1104 28.7217 98.6006 28.8975 98.0674 29.0088C97.54 29.1201 96.8984 29.1758 96.1426 29.1758C95.1582 29.1758 94.2852 28.9941 93.5234 28.6309C92.7676 28.2676 92.1729 27.7139 91.7393 26.9697C91.3115 26.2256 91.0977 25.2881 91.0977 24.1572C91.0977 23.0088 91.291 22.0537 91.6777 21.292C92.0703 20.5244 92.6152 19.9502 93.3125 19.5693C94.0098 19.1826 94.8213 18.9893 95.7471 18.9893ZM95.7646 20.8965C95.2432 20.8965 94.8096 21.0635 94.4639 21.3975C94.124 21.7314 93.9277 22.2559 93.875 22.9707H97.6367C97.6309 22.5723 97.5576 22.2178 97.417 21.9072C97.2822 21.5967 97.0771 21.3506 96.8018 21.1689C96.5322 20.9873 96.1865 20.8965 95.7646 20.8965ZM109.186 26.082C109.186 26.75 109.027 27.3154 108.711 27.7783C108.4 28.2354 107.935 28.584 107.313 28.8242C106.692 29.0586 105.919 29.1758 104.993 29.1758C104.308 29.1758 103.719 29.1318 103.227 29.0439C102.74 28.9561 102.248 28.8096 101.75 28.6045V26.3896C102.283 26.6299 102.854 26.8291 103.464 26.9873C104.079 27.1396 104.618 27.2158 105.081 27.2158C105.603 27.2158 105.975 27.1396 106.197 26.9873C106.426 26.8291 106.54 26.624 106.54 26.3721C106.54 26.208 106.493 26.0615 106.399 25.9326C106.312 25.7979 106.118 25.6484 105.819 25.4844C105.521 25.3145 105.052 25.0947 104.413 24.8252C103.798 24.5674 103.291 24.3066 102.893 24.043C102.5 23.7793 102.207 23.4688 102.014 23.1113C101.826 22.748 101.732 22.2881 101.732 21.7314C101.732 20.8232 102.084 20.1406 102.787 19.6836C103.496 19.2207 104.442 18.9893 105.626 18.9893C106.235 18.9893 106.815 19.0508 107.366 19.1738C107.923 19.2969 108.494 19.4932 109.08 19.7627L108.271 21.6963C107.785 21.4854 107.325 21.3125 106.892 21.1777C106.464 21.043 106.027 20.9756 105.582 20.9756C105.189 20.9756 104.894 21.0283 104.694 21.1338C104.495 21.2393 104.396 21.4004 104.396 21.6172C104.396 21.7754 104.445 21.916 104.545 22.0391C104.65 22.1621 104.85 22.2998 105.143 22.4521C105.441 22.5986 105.878 22.7891 106.452 23.0234C107.009 23.252 107.492 23.4922 107.902 23.7441C108.312 23.9902 108.629 24.2979 108.852 24.667C109.074 25.0303 109.186 25.502 109.186 26.082ZM115.417 27.04C115.71 27.04 115.994 27.0107 116.27 26.9521C116.551 26.8936 116.829 26.8203 117.104 26.7324V28.7275C116.817 28.8564 116.46 28.9619 116.032 29.0439C115.61 29.1318 115.147 29.1758 114.644 29.1758C114.058 29.1758 113.53 29.082 113.062 28.8945C112.599 28.7012 112.232 28.3701 111.963 27.9014C111.699 27.4268 111.567 26.7676 111.567 25.9238V21.1865H110.284V20.0527L111.761 19.1562L112.534 17.082H114.248V19.1738H116.999V21.1865H114.248V25.9238C114.248 26.2988 114.354 26.5801 114.564 26.7676C114.781 26.9492 115.065 27.04 115.417 27.04ZM125.955 26.082C125.955 26.75 125.797 27.3154 125.48 27.7783C125.17 28.2354 124.704 28.584 124.083 28.8242C123.462 29.0586 122.688 29.1758 121.763 29.1758C121.077 29.1758 120.488 29.1318 119.996 29.0439C119.51 28.9561 119.018 28.8096 118.52 28.6045V26.3896C119.053 26.6299 119.624 26.8291 120.233 26.9873C120.849 27.1396 121.388 27.2158 121.851 27.2158C122.372 27.2158 122.744 27.1396 122.967 26.9873C123.195 26.8291 123.31 26.624 123.31 26.3721C123.31 26.208 123.263 26.0615 123.169 25.9326C123.081 25.7979 122.888 25.6484 122.589 25.4844C122.29 25.3145 121.821 25.0947 121.183 24.8252C120.567 24.5674 120.061 24.3066 119.662 24.043C119.27 23.7793 118.977 23.4688 118.783 23.1113C118.596 22.748 118.502 22.2881 118.502 21.7314C118.502 20.8232 118.854 20.1406 119.557 19.6836C120.266 19.2207 121.212 18.9893 122.396 18.9893C123.005 18.9893 123.585 19.0508 124.136 19.1738C124.692 19.2969 125.264 19.4932 125.85 19.7627L125.041 21.6963C124.555 21.4854 124.095 21.3125 123.661 21.1777C123.233 21.043 122.797 20.9756 122.352 20.9756C121.959 20.9756 121.663 21.0283 121.464 21.1338C121.265 21.2393 121.165 21.4004 121.165 21.6172C121.165 21.7754 121.215 21.916 121.314 22.0391C121.42 22.1621 121.619 22.2998 121.912 22.4521C122.211 22.5986 122.647 22.7891 123.222 23.0234C123.778 23.252 124.262 23.4922 124.672 23.7441C125.082 23.9902 125.398 24.2979 125.621 24.667C125.844 25.0303 125.955 25.502 125.955 26.082Z" fill="black" fill-opacity="0.47"/>
<path d="M16.5 18.5714C18.1481 18.5714 19.7288 17.9167 20.8942 16.7513C22.0596 15.5859 22.7143 14.0053 22.7143 12.3571V8.21429C22.7143 6.56615 22.0596 4.98553 20.8942 3.82012C19.7288 2.65472 18.1481 2 16.5 2C14.8519 2 13.2712 2.65472 12.1058 3.82012C10.9404 4.98553 10.2857 6.56615 10.2857 8.21429V12.3571C10.2857 14.0053 10.9404 15.5859 12.1058 16.7513C13.2712 17.9167 14.8519 18.5714 16.5 18.5714ZM16.5 18.5714C23.3647 18.5714 31 22.8904 31 29.492V31C31 31.5494 30.7818 32.0763 30.3933 32.4647C30.0048 32.8532 29.4779 33.0714 28.9286 33.0714H4.07143C3.52205 33.0714 2.99518 32.8532 2.60671 32.4647C2.21824 32.0763 2 31.5494 2 31V29.492C2 22.8904 9.63529 18.5714 16.5 18.5714Z" stroke="black" stroke-opacity="0.66" stroke-width="2.07143" stroke-linecap="round" stroke-linejoin="round"/>
<path d="M134.025 14L144.19 24.1428L154.355 14L157.478 17.1226L144.19 30.41L130.903 17.1226L134.025 14Z" fill="#878787"/>
</svg>
