<svg width="164" height="32" viewBox="0 0 164 32" fill="none" xmlns="http://www.w3.org/2000/svg">
<path d="M69.6504 25L68.3936 21.4316H63.4805L62.2236 25H60L64.7812 12.0977H67.1191L71.8916 25H69.6504ZM67.8486 19.6211L66.627 16.1055C66.5801 15.9531 66.5127 15.7393 66.4248 15.4639C66.3369 15.1826 66.249 14.8984 66.1611 14.6113C66.0732 14.3184 66 14.0723 65.9414 13.873C65.8828 14.1133 65.8096 14.3828 65.7217 14.6816C65.6396 14.9746 65.5576 15.25 65.4756 15.5078C65.3994 15.7656 65.3408 15.9648 65.2998 16.1055L64.0693 19.6211H67.8486ZM75.4512 25H73.377V11.3242H75.4512V25ZM80.4785 25H78.4043V11.3242H80.4785V25ZM92.0537 12.1504C93.7119 12.1504 94.9219 12.4902 95.6836 13.1699C96.4453 13.8496 96.8262 14.8018 96.8262 16.0264C96.8262 16.583 96.7383 17.1133 96.5625 17.6172C96.3926 18.1152 96.1113 18.5576 95.7188 18.9443C95.3262 19.3252 94.8076 19.627 94.1631 19.8496C93.5244 20.0723 92.7363 20.1836 91.7988 20.1836H90.4277V25H88.3184V12.1504H92.0537ZM91.9131 13.8994H90.4277V18.4258H91.5791C92.2412 18.4258 92.8037 18.3496 93.2666 18.1973C93.7295 18.0391 94.0811 17.79 94.3213 17.4502C94.5615 17.1104 94.6816 16.6621 94.6816 16.1055C94.6816 15.3613 94.4561 14.8076 94.0049 14.4443C93.5596 14.0811 92.8623 13.8994 91.9131 13.8994ZM104.112 15.0859C104.276 15.0859 104.455 15.0947 104.648 15.1123C104.842 15.1299 105.009 15.1533 105.149 15.1826L104.956 17.1162C104.833 17.0811 104.681 17.0547 104.499 17.0371C104.323 17.0195 104.165 17.0107 104.024 17.0107C103.655 17.0107 103.304 17.0723 102.97 17.1953C102.636 17.3125 102.34 17.4941 102.082 17.7402C101.824 17.9805 101.622 18.2822 101.476 18.6455C101.329 19.0088 101.256 19.4307 101.256 19.9111V25H99.1816V15.2705H100.799L101.08 16.9844H101.177C101.37 16.6387 101.61 16.3223 101.897 16.0352C102.185 15.748 102.513 15.5195 102.882 15.3496C103.257 15.1738 103.667 15.0859 104.112 15.0859ZM115.564 20.1133C115.564 20.9219 115.459 21.6396 115.248 22.2666C115.037 22.8936 114.729 23.4238 114.325 23.8574C113.921 24.2852 113.435 24.6133 112.866 24.8418C112.298 25.0645 111.656 25.1758 110.941 25.1758C110.273 25.1758 109.661 25.0645 109.104 24.8418C108.548 24.6133 108.064 24.2852 107.654 23.8574C107.25 23.4238 106.937 22.8936 106.714 22.2666C106.491 21.6396 106.38 20.9219 106.38 20.1133C106.38 19.041 106.564 18.1328 106.934 17.3887C107.309 16.6387 107.842 16.0674 108.533 15.6748C109.225 15.2822 110.048 15.0859 111.003 15.0859C111.899 15.0859 112.69 15.2822 113.376 15.6748C114.062 16.0674 114.598 16.6387 114.984 17.3887C115.371 18.1387 115.564 19.0469 115.564 20.1133ZM108.507 20.1133C108.507 20.8223 108.592 21.4287 108.762 21.9326C108.938 22.4365 109.207 22.8232 109.57 23.0928C109.934 23.3564 110.402 23.4883 110.977 23.4883C111.551 23.4883 112.02 23.3564 112.383 23.0928C112.746 22.8232 113.013 22.4365 113.183 21.9326C113.353 21.4287 113.438 20.8223 113.438 20.1133C113.438 19.4043 113.353 18.8037 113.183 18.3115C113.013 17.8135 112.746 17.4355 112.383 17.1777C112.02 16.9141 111.548 16.7822 110.968 16.7822C110.112 16.7822 109.488 17.0693 109.096 17.6436C108.703 18.2178 108.507 19.041 108.507 20.1133ZM121.207 25.1758C120.047 25.1758 119.115 24.7539 118.412 23.9102C117.715 23.0605 117.366 21.8096 117.366 20.1572C117.366 18.4873 117.721 17.2246 118.43 16.3691C119.145 15.5137 120.085 15.0859 121.251 15.0859C121.743 15.0859 122.174 15.1533 122.543 15.2881C122.912 15.417 123.229 15.5928 123.492 15.8154C123.762 16.0381 123.99 16.2871 124.178 16.5625H124.274C124.245 16.3809 124.21 16.1201 124.169 15.7803C124.134 15.4346 124.116 15.1152 124.116 14.8223V11.3242H126.19V25H124.573L124.204 23.6729H124.116C123.94 23.9541 123.718 24.209 123.448 24.4375C123.185 24.6602 122.868 24.8389 122.499 24.9736C122.136 25.1084 121.705 25.1758 121.207 25.1758ZM121.787 23.4971C122.672 23.4971 123.296 23.2422 123.659 22.7324C124.022 22.2227 124.21 21.458 124.222 20.4385V20.166C124.222 19.0762 124.046 18.2412 123.694 17.6611C123.343 17.0752 122.701 16.7822 121.77 16.7822C121.025 16.7822 120.457 17.084 120.064 17.6875C119.678 18.2852 119.484 19.1201 119.484 20.1924C119.484 21.2646 119.678 22.085 120.064 22.6533C120.457 23.2158 121.031 23.4971 121.787 23.4971ZM137.634 15.2705V25H136.008L135.727 23.6904H135.612C135.407 24.0244 135.146 24.3027 134.83 24.5254C134.514 24.7422 134.162 24.9033 133.775 25.0088C133.389 25.1201 132.981 25.1758 132.554 25.1758C131.821 25.1758 131.194 25.0527 130.673 24.8066C130.157 24.5547 129.762 24.168 129.486 23.6465C129.211 23.125 129.073 22.4512 129.073 21.625V15.2705H131.147V21.2383C131.147 21.9941 131.3 22.5596 131.604 22.9346C131.915 23.3096 132.396 23.4971 133.046 23.4971C133.673 23.4971 134.171 23.3682 134.54 23.1104C134.909 22.8525 135.17 22.4717 135.322 21.9678C135.48 21.4639 135.56 20.8457 135.56 20.1133V15.2705H137.634ZM144.516 25.1758C143.596 25.1758 142.799 24.9971 142.125 24.6396C141.451 24.2822 140.933 23.7344 140.569 22.9961C140.206 22.2578 140.024 21.3203 140.024 20.1836C140.024 19 140.224 18.0332 140.622 17.2832C141.021 16.5332 141.571 15.9795 142.274 15.6221C142.983 15.2646 143.795 15.0859 144.709 15.0859C145.289 15.0859 145.813 15.1445 146.282 15.2617C146.757 15.373 147.158 15.5107 147.486 15.6748L146.871 17.3271C146.514 17.1807 146.147 17.0576 145.772 16.958C145.397 16.8584 145.037 16.8086 144.691 16.8086C144.123 16.8086 143.648 16.9346 143.268 17.1865C142.893 17.4385 142.611 17.8135 142.424 18.3115C142.242 18.8096 142.151 19.4277 142.151 20.166C142.151 20.8809 142.245 21.4844 142.433 21.9766C142.62 22.4629 142.898 22.832 143.268 23.084C143.637 23.3301 144.091 23.4531 144.63 23.4531C145.163 23.4531 145.641 23.3887 146.062 23.2598C146.484 23.1309 146.883 22.9639 147.258 22.7588V24.5518C146.889 24.7627 146.493 24.918 146.071 25.0176C145.649 25.123 145.131 25.1758 144.516 25.1758ZM153.164 23.5059C153.434 23.5059 153.7 23.4824 153.964 23.4355C154.228 23.3828 154.468 23.3213 154.685 23.251V24.8154C154.456 24.915 154.16 25 153.797 25.0703C153.434 25.1406 153.056 25.1758 152.663 25.1758C152.112 25.1758 151.617 25.085 151.178 24.9033C150.738 24.7158 150.39 24.3965 150.132 23.9453C149.874 23.4941 149.745 22.8701 149.745 22.0732V16.8438H148.418V15.9209L149.842 15.1914L150.519 13.1084H151.819V15.2705H154.605V16.8438H151.819V22.0469C151.819 22.5391 151.942 22.9053 152.188 23.1455C152.435 23.3857 152.76 23.5059 153.164 23.5059ZM163.201 22.2227C163.201 22.8613 163.046 23.4004 162.735 23.8398C162.425 24.2793 161.971 24.6133 161.373 24.8418C160.781 25.0645 160.055 25.1758 159.193 25.1758C158.514 25.1758 157.928 25.126 157.436 25.0264C156.949 24.9326 156.489 24.7861 156.056 24.5869V22.8027C156.519 23.0195 157.037 23.207 157.611 23.3652C158.191 23.5234 158.739 23.6025 159.255 23.6025C159.935 23.6025 160.424 23.4971 160.723 23.2861C161.021 23.0693 161.171 22.7822 161.171 22.4248C161.171 22.2139 161.109 22.0264 160.986 21.8623C160.869 21.6924 160.646 21.5195 160.318 21.3438C159.996 21.1621 159.521 20.9453 158.895 20.6934C158.279 20.4473 157.761 20.2012 157.339 19.9551C156.917 19.709 156.598 19.4131 156.381 19.0674C156.164 18.7158 156.056 18.2676 156.056 17.7227C156.056 16.8613 156.396 16.208 157.075 15.7627C157.761 15.3115 158.666 15.0859 159.791 15.0859C160.389 15.0859 160.951 15.1475 161.479 15.2705C162.012 15.3877 162.533 15.5605 163.043 15.7891L162.393 17.3447C161.953 17.1514 161.511 16.9932 161.065 16.8701C160.626 16.7412 160.178 16.6768 159.721 16.6768C159.188 16.6768 158.78 16.7588 158.499 16.9229C158.224 17.0869 158.086 17.3213 158.086 17.626C158.086 17.8545 158.153 18.0479 158.288 18.2061C158.423 18.3643 158.654 18.5225 158.982 18.6807C159.316 18.8389 159.779 19.0352 160.371 19.2695C160.951 19.4922 161.452 19.7266 161.874 19.9727C162.302 20.2129 162.63 20.5088 162.858 20.8604C163.087 21.2119 163.201 21.666 163.201 22.2227Z" fill="#F31D1D"/>
<path d="M18 0C16.8917 0 16 0.891667 16 2C16 3.10833 16.8917 4 18 4H19.3333V6.775C9.96667 7.76667 2.66667 15.7 2.66667 25.3333H40C40 15.7 32.7 7.76667 23.3333 6.775V4H24.6667C25.775 4 26.6667 3.10833 26.6667 2C26.6667 0.891667 25.775 0 24.6667 0H18ZM2 28C0.891667 28 0 28.8917 0 30C0 31.1083 0.891667 32 2 32H40.6667C41.775 32 42.6667 31.1083 42.6667 30C42.6667 28.8917 41.775 28 40.6667 28H2Z" fill="#F31D1D"/>
</svg>
