<svg width="160" height="24" viewBox="0 0 160 24" fill="none" xmlns="http://www.w3.org/2000/svg">
<path d="M0.25 18V0.867188H3.0625V15.6094H10.3398V18H0.25ZM18.1094 4.78125C19.75 4.78125 20.9883 5.14453 21.8242 5.87109C22.668 6.59766 23.0898 7.73047 23.0898 9.26953V18H21.1328L20.6055 16.1602H20.5117C20.1445 16.6289 19.7656 17.0156 19.375 17.3203C18.9844 17.625 18.5312 17.8516 18.0156 18C17.5078 18.1562 16.8867 18.2344 16.1523 18.2344C15.3789 18.2344 14.6875 18.0938 14.0781 17.8125C13.4688 17.5234 12.9883 17.0859 12.6367 16.5C12.2852 15.9141 12.1094 15.1719 12.1094 14.2734C12.1094 12.9375 12.6055 11.9336 13.5977 11.2617C14.5977 10.5898 16.1055 10.2188 18.1211 10.1484L20.3711 10.0664V9.38672C20.3711 8.48828 20.1602 7.84766 19.7383 7.46484C19.3242 7.08203 18.7383 6.89062 17.9805 6.89062C17.332 6.89062 16.7031 6.98438 16.0938 7.17188C15.4844 7.35938 14.8906 7.58984 14.3125 7.86328L13.4219 5.91797C14.0547 5.58203 14.7734 5.30859 15.5781 5.09766C16.3906 4.88672 17.2344 4.78125 18.1094 4.78125ZM20.3594 11.8008L18.6836 11.8594C17.3086 11.9062 16.3438 12.1406 15.7891 12.5625C15.2344 12.9844 14.957 13.5625 14.957 14.2969C14.957 14.9375 15.1484 15.4062 15.5312 15.7031C15.9141 15.9922 16.418 16.1367 17.043 16.1367C17.9961 16.1367 18.7852 15.8672 19.4102 15.3281C20.043 14.7812 20.3594 13.9805 20.3594 12.9258V11.8008ZM30.6484 23.7656C28.8906 23.7656 27.543 23.4492 26.6055 22.8164C25.668 22.1836 25.1992 21.2969 25.1992 20.1562C25.1992 19.3594 25.4492 18.6836 25.9492 18.1289C26.4492 17.582 27.1641 17.2031 28.0938 16.9922C27.7422 16.8359 27.4375 16.5938 27.1797 16.2656C26.9297 15.9297 26.8047 15.5586 26.8047 15.1523C26.8047 14.668 26.9414 14.2539 27.2148 13.9102C27.4883 13.5664 27.8984 13.2344 28.4453 12.9141C27.7656 12.625 27.2188 12.1562 26.8047 11.5078C26.3984 10.8516 26.1953 10.082 26.1953 9.19922C26.1953 8.26172 26.3945 7.46484 26.793 6.80859C27.1914 6.14453 27.7734 5.64062 28.5391 5.29688C29.3047 4.94531 30.2305 4.76953 31.3164 4.76953C31.5508 4.76953 31.8047 4.78516 32.0781 4.81641C32.3594 4.83984 32.6172 4.87109 32.8516 4.91016C33.0938 4.94141 33.2773 4.97656 33.4023 5.01562H37.8906V6.55078L35.6875 6.96094C35.8984 7.25781 36.0664 7.59766 36.1914 7.98047C36.3164 8.35547 36.3789 8.76562 36.3789 9.21094C36.3789 10.5547 35.9141 11.6133 34.9844 12.3867C34.0625 13.1523 32.7891 13.5352 31.1641 13.5352C30.7734 13.5195 30.3945 13.4883 30.0273 13.4414C29.7461 13.6133 29.5312 13.8047 29.3828 14.0156C29.2344 14.2188 29.1602 14.4492 29.1602 14.707C29.1602 14.918 29.2344 15.0898 29.3828 15.2227C29.5312 15.3477 29.75 15.4414 30.0391 15.5039C30.3359 15.5664 30.6953 15.5977 31.1172 15.5977H33.3555C34.7773 15.5977 35.8633 15.8984 36.6133 16.5C37.3633 17.1016 37.7383 17.9844 37.7383 19.1484C37.7383 20.625 37.1289 21.7617 35.9102 22.5586C34.6914 23.3633 32.9375 23.7656 30.6484 23.7656ZM30.7539 21.832C31.7148 21.832 32.5234 21.7383 33.1797 21.5508C33.8359 21.3633 34.332 21.0938 34.668 20.7422C35.0039 20.3984 35.1719 19.9883 35.1719 19.5117C35.1719 19.0898 35.0664 18.7656 34.8555 18.5391C34.6445 18.3125 34.3281 18.1562 33.9062 18.0703C33.4844 17.9844 32.9609 17.9414 32.3359 17.9414H30.2969C29.7891 17.9414 29.3398 18.0195 28.9492 18.1758C28.5586 18.3398 28.2539 18.5742 28.0352 18.8789C27.8242 19.1836 27.7188 19.5508 27.7188 19.9805C27.7188 20.5742 27.9805 21.0312 28.5039 21.3516C29.0352 21.6719 29.7852 21.832 30.7539 21.832ZM31.293 11.7305C32.0977 11.7305 32.6953 11.5117 33.0859 11.0742C33.4766 10.6289 33.6719 10.0039 33.6719 9.19922C33.6719 8.32422 33.4688 7.66797 33.0625 7.23047C32.6641 6.79297 32.0703 6.57422 31.2812 6.57422C30.5078 6.57422 29.918 6.79688 29.5117 7.24219C29.1133 7.6875 28.9141 8.34766 28.9141 9.22266C28.9141 10.0117 29.1133 10.6289 29.5117 11.0742C29.918 11.5117 30.5117 11.7305 31.293 11.7305ZM51.7422 11.4844C51.7422 12.5625 51.6016 13.5195 51.3203 14.3555C51.0391 15.1914 50.6289 15.8984 50.0898 16.4766C49.5508 17.0469 48.9023 17.4844 48.1445 17.7891C47.3867 18.0859 46.5312 18.2344 45.5781 18.2344C44.6875 18.2344 43.8711 18.0859 43.1289 17.7891C42.3867 17.4844 41.7422 17.0469 41.1953 16.4766C40.6562 15.8984 40.2383 15.1914 39.9414 14.3555C39.6445 13.5195 39.4961 12.5625 39.4961 11.4844C39.4961 10.0547 39.7422 8.84375 40.2344 7.85156C40.7344 6.85156 41.4453 6.08984 42.3672 5.56641C43.2891 5.04297 44.3867 4.78125 45.6602 4.78125C46.8555 4.78125 47.9102 5.04297 48.8242 5.56641C49.7383 6.08984 50.4531 6.85156 50.9688 7.85156C51.4844 8.85156 51.7422 10.0625 51.7422 11.4844ZM42.332 11.4844C42.332 12.4297 42.4453 13.2383 42.6719 13.9102C42.9062 14.582 43.2656 15.0977 43.75 15.457C44.2344 15.8086 44.8594 15.9844 45.625 15.9844C46.3906 15.9844 47.0156 15.8086 47.5 15.457C47.9844 15.0977 48.3398 14.582 48.5664 13.9102C48.793 13.2383 48.9062 12.4297 48.9062 11.4844C48.9062 10.5391 48.793 9.73828 48.5664 9.08203C48.3398 8.41797 47.9844 7.91406 47.5 7.57031C47.0156 7.21875 46.3867 7.04297 45.6133 7.04297C44.4727 7.04297 43.6406 7.42578 43.1172 8.19141C42.5938 8.95703 42.332 10.0547 42.332 11.4844ZM63.625 14.2969C63.625 15.1484 63.418 15.8672 63.0039 16.4531C62.5898 17.0391 61.9844 17.4844 61.1875 17.7891C60.3984 18.0859 59.4297 18.2344 58.2812 18.2344C57.375 18.2344 56.5938 18.168 55.9375 18.0352C55.2891 17.9102 54.6758 17.7148 54.0977 17.4492V15.0703C54.7148 15.3594 55.4062 15.6094 56.1719 15.8203C56.9453 16.0312 57.6758 16.1367 58.3633 16.1367C59.2695 16.1367 59.9219 15.9961 60.3203 15.7148C60.7188 15.4258 60.918 15.043 60.918 14.5664C60.918 14.2852 60.8359 14.0352 60.6719 13.8164C60.5156 13.5898 60.2188 13.3594 59.7812 13.125C59.3516 12.8828 58.7188 12.5938 57.8828 12.2578C57.0625 11.9297 56.3711 11.6016 55.8086 11.2734C55.2461 10.9453 54.8203 10.5508 54.5312 10.0898C54.2422 9.62109 54.0977 9.02344 54.0977 8.29688C54.0977 7.14844 54.5508 6.27734 55.457 5.68359C56.3711 5.08203 57.5781 4.78125 59.0781 4.78125C59.875 4.78125 60.625 4.86328 61.3281 5.02734C62.0391 5.18359 62.7344 5.41406 63.4141 5.71875L62.5469 7.79297C61.9609 7.53516 61.3711 7.32422 60.7773 7.16016C60.1914 6.98828 59.5938 6.90234 58.9844 6.90234C58.2734 6.90234 57.7305 7.01172 57.3555 7.23047C56.9883 7.44922 56.8047 7.76172 56.8047 8.16797C56.8047 8.47266 56.8945 8.73047 57.0742 8.94141C57.2539 9.15234 57.5625 9.36328 58 9.57422C58.4453 9.78516 59.0625 10.0469 59.8516 10.3594C60.625 10.6562 61.293 10.9688 61.8555 11.2969C62.4258 11.6172 62.8633 12.0117 63.168 12.4805C63.4727 12.9492 63.625 13.5547 63.625 14.2969ZM69.3789 15.2109L69.543 15.4805C69.4023 16.043 69.2227 16.6484 69.0039 17.2969C68.7852 17.9453 68.5469 18.5938 68.2891 19.2422C68.0312 19.8984 67.7695 20.5156 67.5039 21.0938H65.4883C65.6523 20.4609 65.8086 19.7969 65.957 19.1016C66.1133 18.4141 66.2539 17.7344 66.3789 17.0625C66.5117 16.3828 66.6172 15.7656 66.6953 15.2109H69.3789ZM93.9531 18H90.4961L82.1055 4.32422H82C82.0312 4.78516 82.0586 5.27344 82.082 5.78906C82.1133 6.30469 82.1367 6.83594 82.1523 7.38281C82.1758 7.92969 82.1953 8.48438 82.2109 9.04688V18H79.6562V0.867188H83.0898L91.4688 14.4492H91.5508C91.5352 14.0508 91.5156 13.5938 91.4922 13.0781C91.4688 12.5625 91.4453 12.0312 91.4219 11.4844C91.4062 10.9297 91.3945 10.3945 91.3867 9.87891V0.867188H93.9531V18ZM100.926 5.02734V18H98.1719V5.02734H100.926ZM99.5664 0.0585938C99.9883 0.0585938 100.352 0.171875 100.656 0.398438C100.969 0.625 101.125 1.01562 101.125 1.57031C101.125 2.11719 100.969 2.50781 100.656 2.74219C100.352 2.96875 99.9883 3.08203 99.5664 3.08203C99.1289 3.08203 98.7578 2.96875 98.4531 2.74219C98.1562 2.50781 98.0078 2.11719 98.0078 1.57031C98.0078 1.01562 98.1562 0.625 98.4531 0.398438C98.7578 0.171875 99.1289 0.0585938 99.5664 0.0585938ZM108.578 23.7656C106.82 23.7656 105.473 23.4492 104.535 22.8164C103.598 22.1836 103.129 21.2969 103.129 20.1562C103.129 19.3594 103.379 18.6836 103.879 18.1289C104.379 17.582 105.094 17.2031 106.023 16.9922C105.672 16.8359 105.367 16.5938 105.109 16.2656C104.859 15.9297 104.734 15.5586 104.734 15.1523C104.734 14.668 104.871 14.2539 105.145 13.9102C105.418 13.5664 105.828 13.2344 106.375 12.9141C105.695 12.625 105.148 12.1562 104.734 11.5078C104.328 10.8516 104.125 10.082 104.125 9.19922C104.125 8.26172 104.324 7.46484 104.723 6.80859C105.121 6.14453 105.703 5.64062 106.469 5.29688C107.234 4.94531 108.16 4.76953 109.246 4.76953C109.48 4.76953 109.734 4.78516 110.008 4.81641C110.289 4.83984 110.547 4.87109 110.781 4.91016C111.023 4.94141 111.207 4.97656 111.332 5.01562H115.82V6.55078L113.617 6.96094C113.828 7.25781 113.996 7.59766 114.121 7.98047C114.246 8.35547 114.309 8.76562 114.309 9.21094C114.309 10.5547 113.844 11.6133 112.914 12.3867C111.992 13.1523 110.719 13.5352 109.094 13.5352C108.703 13.5195 108.324 13.4883 107.957 13.4414C107.676 13.6133 107.461 13.8047 107.312 14.0156C107.164 14.2188 107.09 14.4492 107.09 14.707C107.09 14.918 107.164 15.0898 107.312 15.2227C107.461 15.3477 107.68 15.4414 107.969 15.5039C108.266 15.5664 108.625 15.5977 109.047 15.5977H111.285C112.707 15.5977 113.793 15.8984 114.543 16.5C115.293 17.1016 115.668 17.9844 115.668 19.1484C115.668 20.625 115.059 21.7617 113.84 22.5586C112.621 23.3633 110.867 23.7656 108.578 23.7656ZM108.684 21.832C109.645 21.832 110.453 21.7383 111.109 21.5508C111.766 21.3633 112.262 21.0938 112.598 20.7422C112.934 20.3984 113.102 19.9883 113.102 19.5117C113.102 19.0898 112.996 18.7656 112.785 18.5391C112.574 18.3125 112.258 18.1562 111.836 18.0703C111.414 17.9844 110.891 17.9414 110.266 17.9414H108.227C107.719 17.9414 107.27 18.0195 106.879 18.1758C106.488 18.3398 106.184 18.5742 105.965 18.8789C105.754 19.1836 105.648 19.5508 105.648 19.9805C105.648 20.5742 105.91 21.0312 106.434 21.3516C106.965 21.6719 107.715 21.832 108.684 21.832ZM109.223 11.7305C110.027 11.7305 110.625 11.5117 111.016 11.0742C111.406 10.6289 111.602 10.0039 111.602 9.19922C111.602 8.32422 111.398 7.66797 110.992 7.23047C110.594 6.79297 110 6.57422 109.211 6.57422C108.438 6.57422 107.848 6.79688 107.441 7.24219C107.043 7.6875 106.844 8.34766 106.844 9.22266C106.844 10.0117 107.043 10.6289 107.441 11.0742C107.848 11.5117 108.441 11.7305 109.223 11.7305ZM123.355 4.78125C124.512 4.78125 125.504 5.01953 126.332 5.49609C127.16 5.97266 127.797 6.64844 128.242 7.52344C128.688 8.39844 128.91 9.44531 128.91 10.6641V12.1406H120.25C120.281 13.3984 120.617 14.3672 121.258 15.0469C121.906 15.7266 122.812 16.0664 123.977 16.0664C124.805 16.0664 125.547 15.9883 126.203 15.832C126.867 15.668 127.551 15.4297 128.254 15.1172V17.3555C127.605 17.6602 126.945 17.8828 126.273 18.0234C125.602 18.1641 124.797 18.2344 123.859 18.2344C122.586 18.2344 121.465 17.9883 120.496 17.4961C119.535 16.9961 118.781 16.2539 118.234 15.2695C117.695 14.2852 117.426 13.0625 117.426 11.6016C117.426 10.1484 117.672 8.91406 118.164 7.89844C118.656 6.88281 119.348 6.10938 120.238 5.57812C121.129 5.04688 122.168 4.78125 123.355 4.78125ZM123.355 6.85547C122.488 6.85547 121.785 7.13672 121.246 7.69922C120.715 8.26172 120.402 9.08594 120.309 10.1719H126.215C126.207 9.52344 126.098 8.94922 125.887 8.44922C125.684 7.94922 125.371 7.55859 124.949 7.27734C124.535 6.99609 124.004 6.85547 123.355 6.85547ZM138.59 4.78125C138.809 4.78125 139.047 4.79297 139.305 4.81641C139.562 4.83984 139.785 4.87109 139.973 4.91016L139.715 7.48828C139.551 7.44141 139.348 7.40625 139.105 7.38281C138.871 7.35938 138.66 7.34766 138.473 7.34766C137.98 7.34766 137.512 7.42969 137.066 7.59375C136.621 7.75 136.227 7.99219 135.883 8.32031C135.539 8.64062 135.27 9.04297 135.074 9.52734C134.879 10.0117 134.781 10.5742 134.781 11.2148V18H132.016V5.02734H134.172L134.547 7.3125H134.676C134.934 6.85156 135.254 6.42969 135.637 6.04688C136.02 5.66406 136.457 5.35938 136.949 5.13281C137.449 4.89844 137.996 4.78125 138.59 4.78125ZM145.129 5.02734V18H142.375V5.02734H145.129ZM143.77 0.0585938C144.191 0.0585938 144.555 0.171875 144.859 0.398438C145.172 0.625 145.328 1.01562 145.328 1.57031C145.328 2.11719 145.172 2.50781 144.859 2.74219C144.555 2.96875 144.191 3.08203 143.77 3.08203C143.332 3.08203 142.961 2.96875 142.656 2.74219C142.359 2.50781 142.211 2.11719 142.211 1.57031C142.211 1.01562 142.359 0.625 142.656 0.398438C142.961 0.171875 143.332 0.0585938 143.77 0.0585938ZM154.164 4.78125C155.805 4.78125 157.043 5.14453 157.879 5.87109C158.723 6.59766 159.145 7.73047 159.145 9.26953V18H157.188L156.66 16.1602H156.566C156.199 16.6289 155.82 17.0156 155.43 17.3203C155.039 17.625 154.586 17.8516 154.07 18C153.562 18.1562 152.941 18.2344 152.207 18.2344C151.434 18.2344 150.742 18.0938 150.133 17.8125C149.523 17.5234 149.043 17.0859 148.691 16.5C148.34 15.9141 148.164 15.1719 148.164 14.2734C148.164 12.9375 148.66 11.9336 149.652 11.2617C150.652 10.5898 152.16 10.2188 154.176 10.1484L156.426 10.0664V9.38672C156.426 8.48828 156.215 7.84766 155.793 7.46484C155.379 7.08203 154.793 6.89062 154.035 6.89062C153.387 6.89062 152.758 6.98438 152.148 7.17188C151.539 7.35938 150.945 7.58984 150.367 7.86328L149.477 5.91797C150.109 5.58203 150.828 5.30859 151.633 5.09766C152.445 4.88672 153.289 4.78125 154.164 4.78125ZM156.414 11.8008L154.738 11.8594C153.363 11.9062 152.398 12.1406 151.844 12.5625C151.289 12.9844 151.012 13.5625 151.012 14.2969C151.012 14.9375 151.203 15.4062 151.586 15.7031C151.969 15.9922 152.473 16.1367 153.098 16.1367C154.051 16.1367 154.84 15.8672 155.465 15.3281C156.098 14.7812 156.414 13.9805 156.414 12.9258V11.8008Z" fill="#F31D1D"/>
</svg>
